<svg width="170" height="29" viewBox="0 0 170 29" fill="none" xmlns="http://www.w3.org/2000/svg">
<g clip-path="url(#clip0)">
<path fill-rule="evenodd" clip-rule="evenodd" d="M169.304 6.62846C169.478 6.62846 169.652 6.71567 169.783 6.8465C169.914 6.97733 170.001 7.15176 170.001 7.3262V25.4676C170.001 25.642 169.914 25.8164 169.783 25.9473L166.822 28.9127C166.691 29.0435 166.561 29.0871 166.343 29.0871H158.723C158.548 29.0871 158.374 29.0435 158.244 28.9127L155.718 26.4269C155.587 26.2961 155.544 26.1653 155.544 25.9473V24.7698C155.544 24.5954 155.631 24.4209 155.761 24.2901C155.892 24.1593 156.066 24.0721 156.24 24.0721H158.984C159.158 24.0721 159.332 24.1593 159.463 24.2901C159.593 24.4209 159.68 24.5954 159.68 24.7698C159.68 24.9442 159.724 25.0751 159.855 25.2495L160.072 25.4676C160.203 25.5984 160.377 25.6856 160.551 25.6856H164.514C164.645 25.6856 164.819 25.5984 164.993 25.4676L165.646 24.7698C165.777 24.639 165.82 24.5082 165.82 24.2901V21.4991C165.82 21.2811 165.733 21.1066 165.603 21.0194C165.472 20.8886 165.298 20.845 165.167 20.845C164.993 20.845 164.819 20.9322 164.688 21.063L163.687 22.0224C163.556 22.1533 163.425 22.1969 163.208 22.1969H158.635C158.461 22.1969 158.287 22.1533 158.156 22.0224L155.805 19.6239C155.282 19.1006 155.021 18.4901 155.021 17.7488V7.28259C155.021 7.10816 155.108 6.93372 155.239 6.80289C155.37 6.67206 155.544 6.58485 155.718 6.58485H158.461C158.635 6.58485 158.81 6.67206 158.94 6.80289C159.071 6.93372 159.158 7.10816 159.158 7.28259V17.2691C159.158 17.4435 159.201 17.6179 159.332 17.7488L159.985 18.4465C160.116 18.5773 160.29 18.6645 160.464 18.6645H162.598C162.772 18.6645 162.903 18.5773 163.077 18.4465L165.603 15.7863C165.733 15.6555 165.777 15.5247 165.777 15.3066V10.1172H165.298C165.124 10.1172 164.949 10.03 164.819 9.89913C164.688 9.7683 164.601 9.59387 164.601 9.41943V7.28259C164.601 7.10816 164.688 6.93372 164.819 6.80289C164.949 6.67206 165.124 6.58485 165.298 6.58485H169.304V6.62846ZM105.119 6.62846C105.293 6.62846 105.467 6.71567 105.598 6.8465C105.728 6.97733 105.815 7.15176 105.815 7.3262V9.41943C105.815 9.63748 105.728 9.81191 105.598 9.94274C105.467 10.0736 105.293 10.1608 105.119 10.1608H104.727V21.2811C104.727 21.4991 104.64 21.7172 104.465 21.8916C104.291 22.066 104.073 22.1533 103.856 22.1533H101.461C101.243 22.1533 101.025 22.066 100.851 21.8916C100.677 21.7172 100.59 21.4991 100.59 21.2811V7.50064C100.59 7.28259 100.677 7.06455 100.851 6.89011C101.025 6.71567 101.243 6.62846 101.461 6.62846H105.119ZM91.7066 4.49161C91.5325 4.70966 91.4454 4.8841 91.4454 5.10214V5.84349C91.4454 6.06154 91.5325 6.27958 91.7066 6.45402C91.8808 6.62846 92.0985 6.71567 92.3163 6.71567H95.3644C95.6257 6.71567 95.7999 6.80289 95.9741 6.97733C96.1482 7.15176 96.2353 7.36981 96.2353 7.58785V9.2886C96.2353 9.55026 96.1482 9.7247 95.9741 9.89913C95.7999 10.0736 95.5822 10.1608 95.3644 10.1608H92.3598C92.0985 10.1608 91.9244 10.248 91.7502 10.4224C91.576 10.5969 91.4889 10.8149 91.4889 11.033V21.3683C91.4889 21.5863 91.4018 21.8044 91.2276 21.9788C91.0535 22.1533 90.8357 22.2405 90.618 22.2405H86.9167C86.7425 22.2405 86.5683 22.1533 86.4377 22.0224C86.3071 21.8916 86.22 21.7172 86.22 21.5427V19.4059C86.22 19.2315 86.3071 19.057 86.4377 18.9262C86.5683 18.7954 86.7425 18.7082 86.9167 18.7082H87.3521V11.033C87.3521 10.8149 87.265 10.5969 87.0909 10.4224C86.9167 10.248 86.699 10.1608 86.4812 10.1608H85.4361C85.1749 10.1608 85.0007 10.0736 84.8265 9.89913C84.6523 9.7247 84.5652 9.50665 84.5652 9.2886V7.58785C84.5652 7.3262 84.6523 7.15176 84.8265 6.97733C85.0007 6.80289 85.2184 6.71567 85.4361 6.71567H86.4812C86.7425 6.71567 86.9167 6.62846 87.0909 6.45402C87.265 6.27958 87.3521 6.06154 87.3521 5.84349V4.01191C87.3521 3.75026 87.4392 3.57582 87.6134 3.40139L90.2261 0.784847C90.4438 0.610411 90.618 0.523193 90.8357 0.523193H95.3209C95.5821 0.523193 95.7563 0.610411 95.9305 0.784847C96.1047 0.959284 96.1918 1.17733 96.1918 1.39537V3.05252C96.1918 3.31417 96.1047 3.48861 95.9305 3.66304C95.7563 3.83748 95.5386 3.9247 95.3209 3.9247H92.5775C92.3598 3.9247 92.1421 4.01191 91.9679 4.18635L91.7066 4.49161ZM125.062 9.85552C125.193 10.03 125.28 10.248 125.28 10.4224V21.4119C125.28 21.63 125.193 21.8044 125.062 21.9352C124.932 22.066 124.757 22.1533 124.54 22.1533H121.927C121.709 22.1533 121.535 22.066 121.404 21.9352C121.274 21.8044 121.187 21.63 121.187 21.4119V11.5563C121.187 11.3382 121.1 11.1638 120.969 11.033L120.359 10.3788C120.229 10.248 120.011 10.1608 119.793 10.1608H117.79C117.572 10.1608 117.398 10.248 117.268 10.3788L115.308 12.3848C114.786 12.9082 114.524 13.5187 114.524 14.26V21.4555C114.524 21.6736 114.437 21.848 114.307 21.9788C114.176 22.1097 113.958 22.1969 113.74 22.1969H111.171C110.954 22.1969 110.779 22.1097 110.605 21.9788C110.475 21.848 110.387 21.6736 110.387 21.4555V10.1608H109.996C109.778 10.1608 109.604 10.0736 109.517 9.94274C109.386 9.81191 109.342 9.63748 109.342 9.41943V7.3262C109.342 7.15176 109.386 6.97733 109.517 6.8465C109.647 6.71567 109.821 6.62846 109.996 6.62846H113.436C113.653 6.62846 113.828 6.71567 114.002 6.8465C114.132 6.97733 114.219 7.19537 114.219 7.41342C114.219 7.63146 114.307 7.8059 114.437 7.93673C114.611 8.06755 114.742 8.15477 114.96 8.15477C115.177 8.15477 115.352 8.06755 115.482 7.93673L116.571 6.8465C116.702 6.71567 116.876 6.62846 117.093 6.62846H121.448C121.622 6.62846 121.84 6.71567 122.014 6.8465L125.062 9.85552ZM135.426 6.62846C135.6 6.62846 135.774 6.71567 135.905 6.8465C136.036 6.97733 136.123 7.15176 136.123 7.3262V9.41943C136.123 9.63748 136.036 9.81191 135.905 9.94274C135.774 10.0736 135.6 10.1608 135.426 10.1608H135.034V21.2811C135.034 21.4991 134.947 21.7172 134.773 21.8916C134.599 22.066 134.381 22.1533 134.163 22.1533H131.768C131.55 22.1533 131.333 22.066 131.158 21.8916C130.984 21.7172 130.897 21.4991 130.897 21.2811V7.50064C130.897 7.28259 130.984 7.06455 131.158 6.89011C131.333 6.71567 131.55 6.62846 131.768 6.62846H135.426ZM142.219 18.6209V10.9894C142.219 10.7277 142.132 10.5533 141.958 10.3788C141.783 10.2044 141.566 10.1172 141.348 10.1172H140.303C140.085 10.1172 139.867 10.03 139.693 9.85552C139.519 9.68109 139.432 9.46304 139.432 9.245V7.50064C139.432 7.28259 139.519 7.06455 139.693 6.89011C139.867 6.71567 140.085 6.62846 140.303 6.62846H141.435C141.696 6.62846 141.871 6.54124 142.045 6.3668C142.219 6.19237 142.306 5.97432 142.306 5.75628V2.44199C142.306 2.22394 142.393 2.0059 142.567 1.83146C142.741 1.65703 142.959 1.56981 143.177 1.56981H145.485C145.703 1.56981 145.92 1.65703 146.094 1.83146C146.269 2.0059 146.356 2.22394 146.356 2.44199V5.75628C146.356 6.01793 146.443 6.19237 146.617 6.3668C146.791 6.54124 147.009 6.62846 147.227 6.62846H150.188C150.449 6.62846 150.623 6.71567 150.797 6.89011C150.971 7.06455 151.059 7.28259 151.059 7.50064V9.2886C151.059 9.50665 150.971 9.7247 150.797 9.89913C150.623 10.0736 150.405 10.1608 150.188 10.1608H147.183C146.922 10.1608 146.748 10.248 146.573 10.4224C146.399 10.5969 146.312 10.8149 146.312 11.033V17.3127C146.312 17.5307 146.399 17.7051 146.573 17.9232L147.14 18.4465C147.314 18.6209 147.488 18.7082 147.749 18.7082H150.188C150.449 18.7082 150.623 18.7954 150.797 18.9698C150.971 19.1442 151.059 19.3623 151.059 19.5803V21.3247C151.059 21.5427 150.971 21.7608 150.797 21.9352C150.623 22.1097 150.405 22.1969 150.188 22.1969H145.79C145.572 22.1969 145.354 22.1097 145.18 21.9352L142.48 19.2751C142.306 19.057 142.219 18.8826 142.219 18.6209Z" fill="white"/>
<path fill-rule="evenodd" clip-rule="evenodd" d="M76.2039 12.3414V11.3384C76.2039 11.2076 76.1604 11.0768 76.0297 10.946L75.333 10.2046C75.2024 10.1174 75.0282 10.0302 74.8976 10.0302H70.543C70.4124 10.0302 70.2382 10.0738 70.1076 10.2046L69.4109 10.946C69.3238 11.0768 69.2367 11.2076 69.2367 11.3384V12.3414C69.2367 12.5159 69.2802 12.6467 69.4109 12.7775C69.5415 12.9084 69.6721 12.952 69.8463 12.952H75.5943C75.7685 12.952 75.8991 12.9084 76.0297 12.7775C76.1168 12.6467 76.2039 12.4723 76.2039 12.3414ZM65.0999 18.2723V10.5971C65.0999 10.161 65.2741 9.7249 65.5789 9.37603L67.7997 7.15197C68.1481 6.8031 68.5835 6.62866 69.019 6.62866H76.291C76.8135 6.62866 77.2054 6.8031 77.5103 7.15197L79.9923 9.59408C80.1665 9.81212 80.2536 9.98656 80.2536 10.2046V14.8708C80.2536 15.1324 80.1665 15.3069 79.9923 15.4813C79.8181 15.6557 79.6004 15.7429 79.3827 15.7429H69.7592C69.5851 15.7429 69.4544 15.7866 69.3238 15.9174C69.1931 16.0482 69.1496 16.179 69.1496 16.3535V17.4873C69.1496 17.6181 69.1931 17.749 69.3238 17.8798L69.977 18.5775C70.1511 18.7084 70.2818 18.752 70.4124 18.752H74.9846C75.1153 18.752 75.2459 18.7084 75.4201 18.5775L76.0297 17.9234C76.1168 17.8362 76.2039 17.7054 76.2039 17.5745C76.2039 17.4001 76.2474 17.2693 76.3781 17.1384C76.5087 17.0076 76.6393 16.964 76.8135 16.964H79.644C79.8181 16.964 79.9488 17.0076 80.0794 17.1384C80.21 17.2693 80.2536 17.4001 80.2536 17.5745V18.752C80.2536 18.9264 80.21 19.0572 80.0794 19.1445L77.6844 21.5866C77.3796 21.9354 76.9442 22.1099 76.4652 22.1099H68.9754C68.4964 22.1099 68.1045 21.9354 67.7562 21.5866L65.6225 19.4497C65.2741 19.1008 65.0999 18.7084 65.0999 18.2723Z" fill="white"/>
<path fill-rule="evenodd" clip-rule="evenodd" d="M55.869 17.182V13.3444C55.869 13.1263 55.782 12.9519 55.6078 12.7338L53.2999 10.4226C53.1257 10.2481 52.908 10.1609 52.6903 10.1609H50.3824C50.1646 10.1609 49.9469 10.2481 49.7727 10.4226L49.076 11.1203C48.9454 11.2511 48.8583 11.4692 48.8583 11.7308V17.1383C48.8583 17.4 48.9454 17.5744 49.076 17.7489L49.7727 18.4466C49.9905 18.6211 50.1646 18.7083 50.3824 18.7083H54.3014C54.5627 18.7083 54.7369 18.6211 54.9111 18.4466L55.6078 17.7489C55.782 17.618 55.869 17.4436 55.869 17.182ZM60.3977 0C60.6155 0 60.7896 0.087218 60.9203 0.218045C61.0509 0.348872 61.138 0.523308 61.138 0.697744V2.79098C61.138 3.00902 61.0509 3.18346 60.9203 3.27068C60.7896 3.4015 60.6155 3.44511 60.3977 3.44511H60.0058V18.4902C60.0058 18.7083 59.9187 18.9263 59.7446 19.1008L56.9141 21.9353C56.7399 22.1098 56.5222 22.197 56.3045 22.197H48.2922C48.0309 22.197 47.8567 22.1098 47.6826 21.9353L44.9828 19.188C44.8086 19.0135 44.7215 18.8391 44.7215 18.5774V10.3353C44.7215 10.0737 44.8086 9.89925 44.9828 9.72481L47.6826 6.97744C47.8567 6.80301 48.0745 6.71579 48.2922 6.71579H53.2563C53.4741 6.71579 53.6482 6.80301 53.866 6.93384L54.4321 7.45714C54.6062 7.63158 54.7804 7.7188 55.0417 7.7188C55.2594 7.7188 55.4771 7.63158 55.6513 7.50075C55.8255 7.32632 55.9126 7.15188 55.9126 6.84662V0.872181C55.9126 0.654135 55.9997 0.43609 56.1739 0.261654C56.348 0.0872181 56.5658 0 56.7835 0H60.3977V0Z" fill="white"/>
<path fill-rule="evenodd" clip-rule="evenodd" d="M0 18.6211V10.161C0 9.94295 0.0870902 9.76851 0.26127 9.55047L2.87398 6.89032C3.04816 6.71588 3.26588 6.62866 3.48361 6.62866H11.3217C11.5394 6.62866 11.7136 6.71588 11.9314 6.89032L14.6311 9.63769C14.8053 9.85573 14.8924 10.0302 14.8924 10.2482V11.9054C14.8924 12.1234 14.8053 12.3414 14.6311 12.5159C14.457 12.6903 14.2392 12.7775 14.0215 12.7775H11.6265C11.4088 12.7775 11.1911 12.6903 11.0169 12.5159C10.8427 12.3414 10.7556 12.1234 10.7556 11.9054V11.6001C10.7556 11.382 10.6685 11.2076 10.4944 10.9896L9.88473 10.4226C9.7541 10.2482 9.53637 10.161 9.2751 10.161H5.48668C5.22541 10.161 5.05123 10.2482 4.87705 10.4226L4.35451 10.946C4.18033 11.1204 4.09324 11.3384 4.09324 11.5565V17.2257C4.09324 17.4873 4.18033 17.6617 4.35451 17.8362L4.92059 18.4031C5.09477 18.5775 5.3125 18.6648 5.53023 18.6648H9.31865C9.57992 18.6648 9.7541 18.5775 9.92828 18.4031L10.5379 17.8362C10.7121 17.6181 10.7992 17.4437 10.7992 17.2257V16.9204C10.7992 16.7023 10.8863 16.4843 11.0605 16.3099C11.2346 16.1354 11.4524 16.0482 11.6701 16.0482H14.0651C14.2828 16.0482 14.5005 16.1354 14.6747 16.3099C14.8489 16.4843 14.936 16.7023 14.936 16.9204V18.5775C14.936 18.8392 14.8489 19.0136 14.6747 19.1881L11.9749 21.9354C11.7572 22.1099 11.583 22.1971 11.3653 22.1971H3.48361C3.22234 22.1971 3.04816 22.1099 2.87398 21.9354L0.26127 19.2753C0.0870902 19.0572 0 18.8828 0 18.6211Z" fill="white"/>
<path fill-rule="evenodd" clip-rule="evenodd" d="M31.7437 22.7639C31.6131 22.8947 31.4389 22.8947 31.2647 22.8947C31.0034 22.8947 30.7422 22.8075 30.5244 22.5895C30.3067 22.3714 30.2196 22.1098 30.2196 21.8045V19.3624C30.2196 18.9263 30.4809 18.6647 30.7857 18.4466L36.7078 14.2601L30.7857 10.2917C30.4374 10.0737 30.1761 9.81202 30.1761 9.37593V6.97743C30.1761 6.67217 30.2632 6.41052 30.4809 6.19247C30.6986 6.01803 30.9599 5.88721 31.2212 5.88721C31.3953 5.88721 31.5695 5.93082 31.7002 6.01803L40.5834 12.0797C40.9317 12.2977 41.1494 12.603 41.1494 13.0391V15.5248C41.1494 15.9609 40.9317 16.2225 40.5834 16.4406L31.7437 22.7639Z" fill="#FF8A00"/>
<path fill-rule="evenodd" clip-rule="evenodd" d="M22.4265 14.3037L28.3487 18.4902C28.697 18.7083 28.9147 18.9699 28.9147 19.406V21.8481C28.9147 22.1534 28.8276 22.415 28.6099 22.6331C28.3922 22.8075 28.1309 22.9383 27.8697 22.9383C27.6955 22.9383 27.5213 22.8947 27.3907 22.8075L18.5075 16.4842C18.1591 16.2662 17.9414 16.0045 17.9414 15.5684V13.0827C17.9414 12.6466 18.1591 12.3413 18.5075 12.1233L27.4342 6.01803C27.5648 5.93082 27.739 5.88721 27.9132 5.88721C28.1745 5.88721 28.4357 5.97442 28.6535 6.19247C28.8712 6.41052 28.9583 6.67217 28.9583 6.97743V9.41954C28.9583 9.85563 28.697 10.1173 28.3487 10.3353L22.4265 14.3037Z" fill="#FF8A00"/>
<path fill-rule="evenodd" clip-rule="evenodd" d="M100.589 2.0059V3.445V4.09913C100.589 4.36079 100.676 4.57883 100.894 4.79688C101.112 5.01492 101.329 5.10214 101.591 5.10214H104.247C104.508 5.10214 104.726 5.01492 104.944 4.79688C105.031 4.70966 105.118 4.57883 105.161 4.49161V3.445V2.0059V1.13372C105.118 1.00289 105.031 0.915675 104.944 0.828456C104.726 0.610411 104.508 0.523193 104.247 0.523193H101.591C101.329 0.523193 101.112 0.610411 100.894 0.828456C100.676 1.0465 100.589 1.26455 100.589 1.5262V2.0059Z" fill="white"/>
<path fill-rule="evenodd" clip-rule="evenodd" d="M130.897 2.0059V3.445V4.09913C130.897 4.36079 130.984 4.57883 131.202 4.79688C131.419 5.01492 131.637 5.10214 131.898 5.10214H134.555C134.816 5.10214 135.034 5.01492 135.251 4.79688C135.338 4.70966 135.426 4.57883 135.469 4.49161V3.445V2.0059V1.13372C135.426 1.00289 135.338 0.915675 135.251 0.828456C135.034 0.610411 134.816 0.523193 134.555 0.523193H131.898C131.637 0.523193 131.419 0.610411 131.202 0.828456C130.984 1.0465 130.897 1.26455 130.897 1.5262V2.0059Z" fill="white"/>
</g>
<defs>
<clipPath id="clip0">
<rect width="170" height="29" fill="white"/>
</clipPath>
</defs>
</svg>
