<svg width="66" height="65" viewBox="0 0 66 65" fill="none" xmlns="http://www.w3.org/2000/svg">
<path fill-rule="evenodd" clip-rule="evenodd" d="M32.6179 17.7211C32.7996 17.7094 32.9826 17.7034 33.167 17.7034C33.3514 17.7034 33.5344 17.7094 33.7161 17.7211C34.1555 17.7495 34.4887 18.1288 34.4603 18.5682C34.4585 18.5968 34.4552 18.6246 34.4506 18.6518L34.3326 19.3489L35.0134 19.54C35.5375 19.6871 36.0362 19.8954 36.5014 20.1569L37.1181 20.5036L37.5277 19.9268C37.5436 19.9045 37.5609 19.8825 37.5797 19.8611C37.8702 19.5301 38.374 19.4973 38.705 19.7878C38.9803 20.0295 39.2059 20.255 39.4476 20.5304C39.7381 20.8614 39.7391 21.399 39.4081 21.6895C39.3867 21.7083 39.3647 21.7256 39.3424 21.7415L38.7656 22.1511L39.1123 22.7678C39.3738 23.233 39.5822 23.7317 39.7293 24.2558L39.9204 24.9365L40.6175 24.8186C40.6446 24.814 40.6724 24.8107 40.701 24.8089C41.1404 24.7805 41.5197 25.1137 41.5481 25.5532C41.5598 25.7348 41.5658 25.9179 41.5658 26.1022C41.5658 26.2866 41.5598 26.4697 41.5481 26.6513C41.5197 27.0907 41.1404 27.4239 40.701 27.3955C40.6724 27.3937 40.6446 27.3904 40.6175 27.3858L39.9204 27.2679L39.7293 27.9486C39.5822 28.4727 39.3739 28.9715 39.1124 29.4366L38.7657 30.0533L39.3424 30.463C39.3648 30.4788 39.3867 30.4961 39.4081 30.515C39.7391 30.8054 39.7719 31.3092 39.4814 31.6402C39.2397 31.9155 38.9803 32.175 38.705 32.4166C38.374 32.7071 37.8702 32.6743 37.5797 32.3433C37.5609 32.3219 37.5436 32.3 37.5278 32.2776L37.1181 31.7009L36.5014 32.0476C36.0363 32.3091 35.5375 32.5174 35.0134 32.6646L34.3327 32.8556L34.4506 33.5527C34.4552 33.5798 34.4585 33.6077 34.4603 33.6362C34.4887 34.0756 34.1555 34.4549 33.7161 34.4833C33.5344 34.495 33.3514 34.501 33.167 34.501C32.9826 34.501 32.7996 34.495 32.6179 34.4833C32.1785 34.4549 31.8453 34.0756 31.8737 33.6362C31.8755 33.6077 31.8788 33.5798 31.8834 33.5527L32.0013 32.8556L31.3206 32.6645C30.7965 32.5174 30.2978 32.309 29.8326 32.0475L29.2159 31.7008L28.8063 32.2776C28.7904 32.3 28.7731 32.3219 28.7543 32.3433C28.4638 32.6743 27.96 32.7071 27.629 32.4166C27.3537 32.175 27.0943 31.9155 26.8526 31.6402C26.5621 31.3092 26.5949 30.8054 26.9259 30.515C26.9473 30.4961 26.9693 30.4788 26.9916 30.4629L27.5684 30.0533L27.2217 29.4366C26.9602 28.9714 26.7519 28.4727 26.6048 27.9486L26.4137 27.2679L25.7165 27.3858C25.6894 27.3904 25.6616 27.3937 25.633 27.3955C25.1936 27.4239 24.8143 27.0907 24.7859 26.6513C24.7742 26.4697 24.7682 26.2866 24.7682 26.1022C24.7682 25.9179 24.7742 25.7348 24.7859 25.5532C24.8143 25.1137 25.1936 24.7805 25.633 24.8089C25.6616 24.8107 25.6894 24.814 25.7166 24.8186L26.4137 24.9366L26.6048 24.2559C26.7519 23.7317 26.9603 23.233 27.2218 22.7679L27.5685 22.1512L26.9917 21.7415C26.9693 21.7256 26.9473 21.7083 26.9259 21.6895C26.5949 21.399 26.5621 20.8952 26.8526 20.5642C27.0943 20.2889 27.3537 20.0295 27.629 19.7878C27.96 19.4973 28.4638 19.5301 28.7543 19.8611C28.7731 19.8825 28.7904 19.9045 28.8063 19.9269L29.216 20.5037L29.8327 20.157C30.2978 19.8955 30.7965 19.6871 31.3207 19.54L32.0014 19.3489L31.8834 18.6518C31.8788 18.6246 31.8755 18.5968 31.8737 18.5682C31.8453 18.1288 32.1785 17.7495 32.6179 17.7211ZM33.167 16.1309C32.9488 16.1309 32.7319 16.1379 32.5165 16.1518C31.3664 16.2261 30.4611 17.1091 30.3188 18.2107C30.0739 18.2991 29.8343 18.3986 29.6006 18.5085C28.7215 17.8305 27.4576 17.8459 26.5917 18.6059C26.265 18.8926 25.9573 19.2003 25.6707 19.5269C24.9107 20.3928 24.8952 21.6567 25.5733 22.5358C25.4634 22.7695 25.3639 23.0091 25.2755 23.2541C24.1739 23.3963 23.2909 24.3016 23.2166 25.4517C23.2132 25.5047 23.2102 25.5578 23.2076 25.6109C23.1356 25.6039 23.0643 25.5969 22.9936 25.59C21.2051 25.4147 19.8152 25.2785 17.989 25.4451L17.2634 25.5113L17.267 25.7484C17.272 26.0853 17.277 26.4222 17.2815 26.759C17.2852 27.0372 17.2901 27.4192 17.2956 27.8855H13.5V48.6435H52.5V27.8855H48.7042L48.7097 27.3514L48.7097 27.3498V27.3498V27.3497C48.7143 26.8814 48.719 26.4131 48.7259 25.9449C48.7284 25.7733 48.7369 25.5294 48.7369 25.5294L48.0099 25.4642C46.2298 25.3046 44.872 25.3672 43.1206 25.5038C43.1196 25.4864 43.1185 25.4691 43.1174 25.4517C43.0431 24.3017 42.1602 23.3963 41.0586 23.2541C40.9702 23.0091 40.8707 22.7695 40.7607 22.5357C41.4388 21.6566 41.4233 20.3928 40.6633 19.5269C40.3767 19.2003 40.069 18.8926 39.7423 18.6059C38.8764 17.8459 37.6126 17.8305 36.7334 18.5085C36.4997 18.3986 36.2601 18.2991 36.0152 18.2107C35.8729 17.1091 34.9676 16.2261 33.8175 16.1518C33.6021 16.1379 33.3852 16.1309 33.167 16.1309ZM43.0724 27.0851C42.8669 28.0738 42.0516 28.8221 41.0586 28.9503C40.9702 29.1953 40.8707 29.435 40.7608 29.6687C41.4388 30.5479 41.4233 31.8117 40.6633 32.6775C40.3767 33.0042 40.069 33.3119 39.7423 33.5986C38.8765 34.3585 37.6127 34.374 36.7335 33.696C36.4998 33.8059 36.2601 33.9054 36.0151 33.9938C35.8728 35.0954 34.9675 35.9783 33.8175 36.0526C33.7548 36.0566 33.6921 36.0601 33.6292 36.063V45.8254C39.436 43.9402 43.1491 43.3928 47.1331 43.3314C47.0646 40.3087 47.0664 36.2656 47.0868 32.876C47.0979 31.0243 47.1145 29.3645 47.1284 28.1675C47.134 27.6919 47.139 27.2893 47.1432 26.9768C45.7762 26.8979 44.6177 26.9624 43.0724 27.0851ZM32.0566 35.9774C31.1315 35.7309 30.4415 34.9437 30.3189 33.9938C30.0739 33.9054 29.8343 33.8059 29.6005 33.6959C28.7214 34.374 27.4576 34.3585 26.5917 33.5986C26.265 33.3119 25.9573 33.0042 25.6707 32.6775C24.9107 31.8116 24.8952 30.5478 25.5733 29.6686C25.4634 29.4349 25.3639 29.1953 25.2755 28.9504C24.3208 28.8271 23.5304 28.1308 23.2881 27.1988C23.1392 27.1844 22.9943 27.1702 22.8527 27.1564C21.3192 27.0066 20.1888 26.8963 18.8568 26.9604C18.8609 27.276 18.866 27.683 18.8715 28.1643C18.8852 29.371 18.9018 31.0445 18.9128 32.9113C18.9329 36.3308 18.9347 40.4096 18.8667 43.4574C22.7817 43.5045 26.3193 43.9341 32.0566 45.8199V35.9774ZM33.1671 22.1487C30.9836 22.1487 29.2135 23.9188 29.2135 26.1023C29.2135 28.2858 30.9836 30.0558 33.1671 30.0558C35.3505 30.0558 37.1206 28.2858 37.1206 26.1023C37.1206 23.9188 35.3505 22.1487 33.1671 22.1487ZM30.7861 26.1023C30.7861 24.7873 31.8521 23.7213 33.1671 23.7213C34.482 23.7213 35.548 24.7873 35.548 26.1023C35.548 27.4172 34.482 28.4832 33.1671 28.4832C31.8521 28.4832 30.7861 27.4172 30.7861 26.1023ZM15.0726 29.4581H17.3126C17.3226 30.4641 17.3327 31.6474 17.3402 32.9206C17.3622 36.6508 17.3621 41.1414 17.2745 44.2166L17.2515 45.0253H18.0605C21.972 45.0253 25.3039 45.3256 30.8132 47.071H15.0726V29.4581ZM50.9274 47.071H34.8981C40.4939 45.3151 44.0026 44.8979 47.9397 44.8979H48.7491L48.7256 44.0888C48.6372 41.039 48.6371 36.5853 48.6593 32.8855C48.6669 31.6255 48.677 30.4544 48.6871 29.4581H50.9274V47.071Z" fill="#FF8A00"/>
</svg>
