<svg width="66" height="65" viewBox="0 0 66 65" fill="none" xmlns="http://www.w3.org/2000/svg">
<path fill-rule="evenodd" clip-rule="evenodd" d="M26.8608 15.528C26.8608 15.1291 27.1841 14.8058 27.583 14.8058H40.9441C41.343 14.8058 41.6663 15.1291 41.6663 15.528V31.2363C41.6663 31.6352 41.343 31.9585 40.9441 31.9585H25.0552C23.8586 31.9585 22.8886 32.9286 22.8886 34.1252V39.0002H16.7497C16.3508 39.0002 16.0275 38.6769 16.0275 38.278V25.278C16.0275 24.8791 16.3508 24.5558 16.7497 24.5558H34.4441C34.843 24.5558 35.1663 24.2324 35.1663 23.8336C35.1663 23.4347 34.843 23.1113 34.4441 23.1113H26.8608V15.528ZM25.4163 23.1113V15.528C25.4163 14.3314 26.3864 13.3613 27.583 13.3613H40.9441C42.1407 13.3613 43.1108 14.3314 43.1108 15.528L43.1108 24.5558H49.4302C50.6269 24.5558 51.5969 25.5258 51.5969 26.7224V39.7224C51.5969 40.9191 50.6269 41.8891 49.4302 41.8891H39.8608V49.653C39.8608 50.8496 38.8907 51.8197 37.6941 51.8197H25.0552C23.8586 51.8197 22.8886 50.8496 22.8886 49.653V40.4447H16.7497C15.5531 40.4447 14.583 39.4746 14.583 38.278V25.278C14.583 24.0814 15.5531 23.1113 16.7497 23.1113H25.4163ZM38.4163 41.8891L31.7358 41.8891C31.3369 41.8891 31.0136 41.5658 31.0136 41.1669C31.0136 40.768 31.3369 40.4447 31.7358 40.4447L49.4302 40.4447C49.8291 40.4447 50.1525 40.1213 50.1525 39.7224L50.1525 26.7224C50.1525 26.3236 49.8291 26.0002 49.4302 26.0002L43.1108 26.0002L43.1108 31.2363C43.1108 32.4329 42.1407 33.403 40.9441 33.403H25.0552C24.6564 33.403 24.333 33.7263 24.333 34.1252V49.653C24.333 50.0519 24.6564 50.3752 25.0552 50.3752H37.6941C38.093 50.3752 38.4163 50.0519 38.4163 49.653V41.8891ZM32.0969 18.9586C32.0969 19.7563 31.4502 20.403 30.6525 20.403C29.8547 20.403 29.208 19.7563 29.208 18.9586C29.208 18.1608 29.8547 17.5141 30.6525 17.5141C31.4502 17.5141 32.0969 18.1608 32.0969 18.9586ZM34.9858 47.4863C35.7835 47.4863 36.4302 46.8396 36.4302 46.0419C36.4302 45.2441 35.7835 44.5974 34.9858 44.5974C34.188 44.5974 33.5413 45.2441 33.5413 46.0419C33.5413 46.8396 34.188 47.4863 34.9858 47.4863Z" fill="#FF8A00"/>
</svg>
