<svg width="66" height="65" viewBox="0 0 66 65" fill="none" xmlns="http://www.w3.org/2000/svg">
<path fill-rule="evenodd" clip-rule="evenodd" d="M27.4032 16.4306C22.0184 16.4306 17.6532 20.7958 17.6532 26.1806C17.6532 31.5653 22.0184 35.9306 27.4032 35.9306C32.788 35.9306 37.1532 31.5653 37.1532 26.1806C37.1532 20.7958 32.788 16.4306 27.4032 16.4306ZM15.8477 26.1806C15.8477 19.7986 21.0213 14.625 27.4032 14.625C33.7852 14.625 38.9588 19.7986 38.9588 26.1806C38.9588 30.8066 36.2404 34.7978 32.3139 36.6438C32.5006 36.7342 32.6787 36.849 32.8435 36.9882L38.0713 41.4027C38.3957 41.2513 38.7576 41.1667 39.1393 41.1667C39.5161 41.1667 39.8737 41.2491 40.1949 41.397L53.858 27.1462C53.6826 26.8022 53.5838 26.4126 53.5838 26C53.5838 24.6039 54.7155 23.4722 56.1115 23.4722C57.5076 23.4722 58.6393 24.6039 58.6393 26C58.6393 27.3961 57.5076 28.5278 56.1115 28.5278C55.9318 28.5278 55.7564 28.509 55.5872 28.4733L41.59 43.0726C41.6404 43.2715 41.6671 43.4799 41.6671 43.6944C41.6671 45.0905 40.5354 46.2222 39.1393 46.2222C37.7433 46.2222 36.6115 45.0905 36.6115 43.6944C36.6115 43.4794 36.6384 43.2706 36.6889 43.0712L31.4457 38.6436C31.3092 38.5283 31.1089 38.5302 30.9746 38.648L21.0032 47.3921C21.0558 47.5952 21.0838 47.8082 21.0838 48.0278C21.0838 49.4238 19.952 50.5556 18.556 50.5556C17.1599 50.5556 16.0282 49.4238 16.0282 48.0278C16.0282 46.6317 17.1599 45.5 18.556 45.5C18.9329 45.5 19.2906 45.5825 19.6119 45.7304L28.8273 37.6492C28.3606 37.7066 27.8854 37.7361 27.4032 37.7361C24.7328 37.7361 22.274 36.8303 20.3172 35.3092L9.78575 45.8673C9.31845 46.3359 8.55547 46.3412 8.08159 45.8791C7.60771 45.417 7.60237 44.6625 8.06967 44.1938L18.5864 33.6505C16.878 31.6361 15.8477 29.0287 15.8477 26.1806ZM31.556 19.8611C31.0574 19.8611 30.6532 20.2653 30.6532 20.7639V30.1528C30.6532 30.6514 31.0574 31.0556 31.556 31.0556C32.0546 31.0556 32.4588 30.6514 32.4588 30.1528V20.7639C32.4588 20.2653 32.0546 19.8611 31.556 19.8611ZM21.9865 23.6528C21.9865 23.1542 22.3907 22.75 22.8893 22.75C23.3879 22.75 23.7921 23.1542 23.7921 23.6528V30.1528C23.7921 30.6514 23.3879 31.0556 22.8893 31.0556C22.3907 31.0556 21.9865 30.6514 21.9865 30.1528V23.6528ZM26.3199 26.5417C26.3199 26.0431 26.7241 25.6389 27.2227 25.6389C27.7212 25.6389 28.1254 26.0431 28.1254 26.5417V30.1528C28.1254 30.6514 27.7212 31.0556 27.2227 31.0556C26.7241 31.0556 26.3199 30.6514 26.3199 30.1528V26.5417Z" fill="#FF8A00"/>
</svg>
