<svg width="66" height="65" viewBox="0 0 66 65" fill="none" xmlns="http://www.w3.org/2000/svg">
<path fill-rule="evenodd" clip-rule="evenodd" d="M36.2369 25.6393V25.1597C36.2369 24.6054 36.2109 24.2269 36.159 24.0241C36.107 23.8213 35.9966 23.6861 35.8277 23.6185C35.6589 23.5509 35.3471 23.5171 34.8925 23.5171H34.4443V21.6515H34.8925C35.3471 21.6515 35.6589 21.6177 35.8277 21.5501C35.9966 21.4825 36.107 21.3473 36.159 21.1445C36.2109 20.9418 36.2369 20.5632 36.2369 20.009V17.2105C36.2369 16.494 36.3278 15.8924 36.5097 15.4058C36.6916 14.9191 36.9513 14.5541 37.2891 14.3107C37.6138 14.0809 37.9321 13.9254 38.2438 13.8443C38.5556 13.7632 38.9323 13.7227 39.3739 13.7227H41.3808V15.4869H40.2118C39.874 15.4869 39.5883 15.6085 39.3545 15.8519C39.1336 16.0817 39.0232 16.3994 39.0232 16.805V19.7048C39.0232 20.543 38.9128 21.1783 38.692 21.6109C38.4711 22.03 38.0685 22.341 37.4839 22.5438V22.6249C38.0685 22.8276 38.4711 23.1386 38.692 23.5577C38.9128 23.9768 39.0232 24.6121 39.0232 25.4638V25.6393H40.9443C41.7421 25.6393 42.3888 26.286 42.3888 27.0838V48.0282C42.3888 48.826 41.7421 49.4727 40.9443 49.4727H13.1388C12.341 49.4727 11.6943 48.826 11.6943 48.0282V27.0838C11.6943 26.286 12.341 25.6393 13.1388 25.6393H36.2369ZM47.8158 30.7362H46.6467V32.5004H48.6536C49.0953 32.5004 49.4785 32.4599 49.8032 32.3788C50.128 32.2976 50.4462 32.1422 50.758 31.9124C51.4464 31.4257 51.7906 30.4591 51.7906 29.0126V25.1597C51.7906 24.6054 51.8166 24.2269 51.8686 24.0241C51.9205 23.8213 52.031 23.6861 52.1998 23.6185C52.3687 23.5509 52.6804 23.5171 53.1351 23.5171H53.5832V21.6515H53.1351C52.6804 21.6515 52.3687 21.6177 52.1998 21.5501C52.031 21.4825 51.9205 21.3473 51.8686 21.1445C51.8166 20.9418 51.7906 20.5632 51.7906 20.009V17.2105C51.7906 15.764 51.4464 14.7974 50.758 14.3107C50.4462 14.0809 50.128 13.9254 49.8032 13.8443C49.4785 13.7632 49.0953 13.7227 48.6536 13.7227H46.6467V15.4869H47.8158C48.1535 15.4869 48.4328 15.6085 48.6536 15.8519C48.8874 16.0817 49.0043 16.3994 49.0043 16.805V19.7048C49.0043 20.543 49.1148 21.1783 49.3356 21.6109C49.5564 22.03 49.9591 22.341 50.5436 22.5438V22.6249C49.9591 22.8276 49.5564 23.1386 49.3356 23.5577C49.1148 23.9768 49.0043 24.6121 49.0043 25.4638V29.4181C49.0043 29.8237 48.8874 30.1414 48.6536 30.3712C48.4328 30.6145 48.1535 30.7362 47.8158 30.7362ZM13.4999 27.4449V47.6671H40.5832V27.4449H13.4999ZM32.8314 29.2504H35.5276C35.9265 29.2504 36.2499 29.5738 36.2499 29.9727C36.2499 30.3715 35.9265 30.6949 35.5276 30.6949H33.5294L29.2351 36.1095L24.7525 33.9578L21.5111 38.564L18.7067 39.165C18.3167 39.2485 17.9328 39.0001 17.8492 38.6101C17.7657 38.2201 18.0141 37.8362 18.4041 37.7526L20.6553 37.2702L24.275 32.1264L28.8202 34.3081L32.8314 29.2504ZM34.6249 32.3199C34.1263 32.3199 33.7221 32.7241 33.7221 33.2227V45.1393C33.7221 45.6379 34.1263 46.0421 34.6249 46.0421C35.1235 46.0421 35.5277 45.6379 35.5277 45.1393V33.2227C35.5277 32.7241 35.1235 32.3199 34.6249 32.3199ZM25.236 36.2921C24.7374 36.2921 24.3332 36.6963 24.3332 37.1949V45.1393C24.3332 45.6379 24.7374 46.0421 25.236 46.0421C25.7346 46.0421 26.1388 45.6379 26.1388 45.1393V37.1949C26.1388 36.6963 25.7346 36.2921 25.236 36.2921ZM20.5416 40.9865C20.043 40.9865 19.6388 41.3907 19.6388 41.8893V45.1393C19.6388 45.6379 20.043 46.0421 20.5416 46.0421C21.0401 46.0421 21.4443 45.6379 21.4443 45.1393V41.8893C21.4443 41.3907 21.0401 40.9865 20.5416 40.9865ZM29.0277 39.3616C29.0277 38.863 29.4319 38.4588 29.9304 38.4588C30.429 38.4588 30.8332 38.863 30.8332 39.3616V45.1393C30.8332 45.6379 30.429 46.0421 29.9304 46.0421C29.4319 46.0421 29.0277 45.6379 29.0277 45.1393V39.3616Z" fill="#FF8A00"/>
</svg>
