<svg width="233" height="161" viewBox="0 0 233 161" fill="none" xmlns="http://www.w3.org/2000/svg">
<path d="M173.614 65.2696C173.614 88.7111 159.798 108.975 139.746 118.597C131.79 122.415 122.851 124.557 113.405 124.557C112.141 124.557 110.886 124.518 109.642 124.443C78.1419 122.53 53.1953 96.7685 53.1953 65.2696C53.1953 32.5262 80.152 5.98242 113.405 5.98242C146.658 5.98242 173.614 32.5262 173.614 65.2696Z" fill="#4F5E77"/>
<path d="M87.4628 14.3369C86.9248 15.2222 82.7741 15.23 82.5406 14.3369C79.8505 15.9599 71.6806 21.1538 65.045 28.9445C58.4094 36.7352 56.13 45.0386 55.6816 48.1371C57.3256 48.3585 60.4718 49.3508 61.0099 52.1838C61.6824 55.7251 59.2168 55.9464 58.9926 58.381C58.7684 60.8156 61.0102 61.2582 62.1311 61.9222C63.2519 62.5862 70.6497 62.3649 73.7882 62.3649C76.9267 62.3649 75.8058 64.5781 76.4783 66.1274C77.1509 67.6767 76.2542 67.4554 79.3926 68.1194C82.5311 68.7834 86.3421 72.5459 87.0146 74.5378C87.6871 76.5298 85.4454 77.4151 84.7729 79.6284C84.1003 81.8416 84.3245 82.727 84.7729 87.5961C85.2212 92.4653 91.274 92.908 94.4124 94.8999C97.5509 96.8919 94.4124 106.409 94.4124 109.95C94.4124 113.491 98.896 115.483 100.914 118.582C102.528 121.061 102.184 123.008 101.81 123.672L107.415 124.558V122.123C107.415 120.353 104.052 117.697 104.276 115.926C104.5 114.155 106.294 115.926 108.76 115.483C111.226 115.041 112.571 109.065 113.467 107.073C114.364 105.081 115.709 107.073 117.054 105.302C118.399 103.532 115.261 101.097 115.261 99.3265C115.261 97.5559 123.78 99.3265 125.125 98.6625C126.47 97.9985 124.004 94.6786 123.331 91.58C122.659 88.4815 125.573 86.7108 127.366 84.9402C129.16 83.1696 127.142 80.735 126.918 80.071C126.739 79.5398 125.199 79.8497 124.452 80.071C124.078 78.8906 123.107 76.397 122.21 75.8658C121.089 75.2018 117.054 77.8578 115.261 78.0791C113.467 78.3004 112.347 72.3246 110.553 70.7753C108.76 69.226 108.311 70.7753 105.845 70.7753C103.379 70.7753 104.052 66.3488 102.259 66.1274C100.465 65.9061 100.689 66.5701 98.896 67.0127C97.1025 67.4554 95.085 63.2502 92.1707 63.0288C89.2564 62.8075 87.4628 67.2341 84.3245 67.898C81.1862 68.562 82.3069 63.0289 82.5311 59.9303C82.7553 56.8317 79.6166 59.7089 78.2717 59.045C76.9268 58.381 80.0652 56.1677 79.1684 55.0611C78.2717 53.9544 76.2542 57.4957 75.3575 58.381C74.4607 59.2663 70.8738 58.381 69.7529 57.053C68.632 55.7251 70.2012 55.2824 72.2188 51.5198C74.2364 47.7573 76.4782 47.3146 79.6166 47.3146C82.7551 47.3146 83.2035 53.2905 83.6518 53.9544C84.1002 54.6184 84.3243 53.5118 85.8936 51.7412C87.4628 49.9706 85.8936 45.544 87.4628 42.8881C89.032 40.2322 91.2738 41.5601 96.8782 39.1255C102.483 36.6909 103.828 28.7232 104.5 28.2805C105.173 27.8379 110.553 30.4938 114.14 27.8379C117.727 25.1819 113.243 22.0833 111.674 20.5341C110.105 18.9848 107.415 22.9687 106.294 24.2966C105.173 25.6246 103.828 23.4113 102.483 22.7473C101.138 22.0833 101.138 23.854 101.362 24.9606C101.586 26.0672 98.8958 27.8379 96.8782 28.7232C94.8606 29.6085 96.2057 24.7393 96.2057 23.4113C96.2057 22.0833 92.843 24.5179 91.2738 23.854C89.7046 23.19 91.7222 20.0914 93.2914 16.7715C94.8606 13.4516 103.155 17.8781 104.5 17.8781C105.845 17.8781 106.966 15.6649 108.311 14.3369C109.656 13.0089 116.83 16.7715 117.727 16.7715C118.623 16.7715 119.52 16.1075 119.744 13.6729C119.924 11.7252 116.979 11.0908 115.485 11.017C115.335 10.9432 114.992 10.6186 114.812 9.91036C114.588 9.02505 111.225 7.03292 109.208 6.59026C107.19 6.14761 106.069 8.13955 104.949 9.46768C103.828 10.7958 100.689 10.7955 99.5683 12.1236C98.4475 13.4517 100.465 9.02503 100.689 7.69707C100.913 6.36911 99.0435 7.07126 97.9388 7.88714C97.3715 8.30608 95.0848 13.0089 93.2914 13.2302C91.8567 13.4073 94.056 10.3999 95.1769 8.70302C94.9527 8.70302 93.821 8.90555 91.3102 9.79086C88.7994 10.6762 86.358 11.9665 84.4054 13.3263C85.1527 13.1788 87.4628 12.2121 87.4628 14.3369Z" fill="#36445C"/>
<path d="M150.008 23.6326C150.187 21.862 147.542 19.0585 146.197 17.8781C145.121 16.1075 145.748 22.9604 146.197 26.6082C146.197 27.1656 146.376 28.369 147.094 28.7232C147.99 29.1658 149.335 27.6165 149.784 26.7312C150.232 25.8459 149.784 25.8459 150.008 23.6326Z" fill="#36445C"/>
<path d="M141.937 24.9606C141.937 24.2524 142.834 23.7802 143.283 23.6326C143.731 22.7473 145.076 23.854 145.524 24.2966C145.973 24.7393 145.524 26.9525 145.3 27.3952C145.076 27.8379 144.179 27.8379 143.283 27.8379C142.386 27.8379 141.937 25.8459 141.937 24.9606Z" fill="#36445C"/>
<path d="M146.869 32.2644C148.663 32.0873 149.559 31.6004 149.784 31.3791C150.157 31.2315 151.218 30.8036 152.474 30.2724C153.729 29.7413 154.491 27.6083 154.716 26.6082H157.854C158.377 26.6082 159.916 27.1197 161.889 29.1658C163.862 31.2119 164.605 33.5979 165.053 34.8111L165.252 36.2483L165.7 39.5682C165.252 40.0846 164.176 41.2945 163.458 42.0028C162.562 42.8881 160.992 42.0028 160.768 40.0108C160.544 38.0189 157.406 34.9203 154.716 34.2563C152.025 33.5924 147.99 35.1416 144.628 36.6909C141.265 38.2402 136.781 38.6829 136.781 34.699C136.781 30.7151 144.628 32.4857 146.869 32.2644Z" fill="#36445C"/>
<path d="M169.063 45.544C170.139 44.6587 170.707 45.4702 170.856 45.9867C171.08 46.4293 171.798 48.6869 172.874 54.1758C174.219 61.0369 173.322 70.7753 173.322 71.8819C173.322 72.9886 171.977 75.2018 168.614 78.5217C165.252 81.8416 162.786 81.6203 162.786 81.1777C162.786 80.735 160.32 79.1857 159.423 76.9725C158.527 74.7592 160.768 73.2099 160.768 71.4393C160.768 69.6687 157.181 71.2179 155.612 70.9966C154.043 70.7753 153.819 69.6687 153.146 69.0047C152.474 68.3407 150.905 68.7834 147.094 70.1113C143.283 71.4393 143.283 70.7753 137.678 67.6767C132.121 64.6045 133.837 57.8335 134.522 55.1298L134.54 55.0611C135.212 52.4051 138.799 53.7331 141.041 52.8478C143.283 51.9625 143.283 50.6345 143.507 48.8639C143.731 47.0933 139.92 45.1014 141.937 43.7734C143.955 42.4454 146.869 44.4374 148.439 44.6587C150.008 44.88 154.716 41.1175 156.957 41.1175C159.199 41.1175 159.647 47.536 163.01 48.4213C166.373 49.3066 167.718 46.6507 169.063 45.544Z" fill="#36445C"/>
<path fill-rule="evenodd" clip-rule="evenodd" d="M61.7579 37.5312C61.7579 37.5312 69.2151 28.9086 69.2151 24.4291C69.2151 19.9497 65.8764 16.3184 61.7579 16.3184C57.6395 16.3184 54.3008 19.9497 54.3008 24.4291C54.3008 28.9086 61.7579 37.5312 61.7579 37.5312ZM61.7581 27.5486C63.922 27.5486 65.6762 25.8167 65.6762 23.6804C65.6762 21.544 63.922 19.8121 61.7581 19.8121C59.5941 19.8121 57.8399 21.544 57.8399 23.6804C57.8399 25.8167 59.5941 27.5486 61.7581 27.5486Z" fill="#FF8A00"/>
<path fill-rule="evenodd" clip-rule="evenodd" d="M91.586 90.8349C91.586 90.8349 99.0432 82.4334 99.0432 78.0688C99.0432 73.7042 95.7045 70.166 91.586 70.166C87.4676 70.166 84.1289 73.7042 84.1289 78.0688C84.1289 82.4334 91.586 90.8349 91.586 90.8349ZM91.5862 81.1084C93.7501 81.1084 95.5043 79.421 95.5043 77.3394C95.5043 75.2578 93.7501 73.5704 91.5862 73.5704C89.4223 73.5704 87.668 75.2578 87.668 77.3394C87.668 79.421 89.4223 81.1084 91.5862 81.1084Z" fill="#FF8A00"/>
<path d="M25.2199 85.9749C25.2199 85.9749 18.7461 85.9749 13.5114 85.9749C8.27675 85.9749 4.0332 81.7963 4.0332 76.6418C4.0332 71.4873 8.27675 67.3088 13.5114 67.3088C18.7461 67.3088 25.2199 80.8204 25.2199 85.9749Z" fill="#6B7C99"/>
<path d="M43.8046 79.2038C43.8046 82.9434 40.726 85.9749 36.9283 85.9749C33.1306 85.9749 25.2199 85.9749 25.2199 85.9749C25.2199 82.2353 33.1306 72.4328 36.9283 72.4328C40.726 72.4328 43.8046 75.4643 43.8046 79.2038Z" fill="#6B7C99"/>
<path d="M37.1141 74.2628C37.1141 80.7312 31.7889 85.9749 25.2199 85.9749C18.6508 85.9749 13.3256 80.7312 13.3256 74.2628C13.3256 67.7944 18.6508 62.5508 25.2199 62.5508C31.7889 62.5508 37.1141 67.7944 37.1141 74.2628Z" fill="#6B7C99"/>
<path d="M155.592 115.788C155.592 115.788 166.247 115.788 174.862 115.788C183.478 115.788 190.186 112.372 190.186 103.888C190.186 93.5005 179.138 90.8343 174.846 93.01C166.23 93.01 155.592 107.305 155.592 115.788Z" fill="#6B7C99"/>
<path d="M125.005 108.24C125.833 114.767 130.072 115.788 136.322 115.788C142.572 115.788 155.592 115.788 155.592 115.788C155.592 109.634 142.572 99.9252 136.322 99.9252C131.081 98.1772 124.176 101.713 125.005 108.24Z" fill="#6B7C99"/>
<path d="M136.016 96.5124C136.016 107.158 144.781 115.788 155.592 115.788C166.404 115.788 175.168 107.158 175.168 96.5124C175.168 85.8665 166.404 77.2363 155.592 77.2363C144.781 77.2363 136.016 85.8665 136.016 96.5124Z" fill="#6B7C99"/>
<path d="M198.42 71.7316C198.42 71.7316 204.175 71.7316 208.828 71.7316C213.481 71.7316 217.253 68.0173 217.253 63.4355C217.253 58.8538 213.481 55.1395 208.828 55.1395C204.175 55.1395 198.42 67.1498 198.42 71.7316Z" fill="#586986"/>
<path d="M181.901 65.7129C181.901 69.0369 184.637 71.7316 188.013 71.7316C191.389 71.7316 198.42 71.7316 198.42 71.7316C198.42 68.4075 191.389 59.6942 188.013 59.6942C184.637 59.6942 181.901 62.3889 181.901 65.7129Z" fill="#586986"/>
<path d="M187.848 61.3209C187.848 67.0705 192.581 71.7316 198.42 71.7316C204.259 71.7316 208.993 67.0705 208.993 61.3209C208.993 55.5712 204.259 50.9102 198.42 50.9102C192.581 50.9102 187.848 55.5712 187.848 61.3209Z" fill="#586986"/>
<path fill-rule="evenodd" clip-rule="evenodd" d="M157.535 27.3909C157.535 27.3909 161.894 22.4479 161.894 19.88C161.894 17.3121 159.943 15.2305 157.535 15.2305C155.128 15.2305 153.177 17.3121 153.177 19.88C153.177 22.4479 157.535 27.3909 157.535 27.3909ZM157.535 21.6681C158.8 21.6681 159.826 20.6753 159.826 19.4506C159.826 18.2259 158.8 17.2331 157.535 17.2331C156.271 17.2331 155.245 18.2259 155.245 19.4506C155.245 20.6753 156.271 21.6681 157.535 21.6681Z" fill="#FF8A00"/>
<path fill-rule="evenodd" clip-rule="evenodd" d="M141.516 63.2893C141.516 63.2893 145.875 58.3464 145.875 55.7785C145.875 53.2106 143.923 51.1289 141.516 51.1289C139.109 51.1289 137.157 53.2106 137.157 55.7785C137.157 58.3464 141.516 63.2893 141.516 63.2893ZM141.516 57.5665C142.781 57.5665 143.806 56.5737 143.806 55.349C143.806 54.1244 142.781 53.1316 141.516 53.1316C140.251 53.1316 139.226 54.1244 139.226 55.349C139.226 56.5737 140.251 57.5665 141.516 57.5665Z" fill="#FF8A00"/>
<path fill-rule="evenodd" clip-rule="evenodd" d="M167.262 69.0768C167.262 69.0768 169.748 66.2026 169.748 64.7095C169.748 63.2163 168.635 62.0059 167.262 62.0059C165.889 62.0059 164.776 63.2163 164.776 64.7095C164.776 66.2026 167.262 69.0768 167.262 69.0768ZM167.262 65.7493C167.983 65.7493 168.568 65.172 168.568 64.4599C168.568 63.7478 167.983 63.1705 167.262 63.1705C166.541 63.1705 165.956 63.7478 165.956 64.4599C165.956 65.172 166.541 65.7493 167.262 65.7493Z" fill="#FF8A00"/>
<path fill-rule="evenodd" clip-rule="evenodd" d="M89.6532 35.354C89.6532 35.354 92.9674 31.5955 92.9674 29.6429C92.9674 27.6903 91.4836 26.1074 89.6532 26.1074C87.8227 26.1074 86.3389 27.6903 86.3389 29.6429C86.3389 31.5955 89.6532 35.354 89.6532 35.354ZM89.6531 31.0026C90.6149 31.0026 91.3945 30.2477 91.3945 29.3164C91.3945 28.3852 90.6149 27.6303 89.6531 27.6303C88.6914 27.6303 87.9117 28.3852 87.9117 29.3164C87.9117 30.2477 88.6914 31.0026 89.6531 31.0026Z" fill="#FF8A00"/>
<path fill-rule="evenodd" clip-rule="evenodd" d="M66.7289 51.1276C66.7289 51.1276 69.2146 48.2534 69.2146 46.7602C69.2146 45.2671 68.1017 44.0566 66.7289 44.0566C65.3561 44.0566 64.2432 45.2671 64.2432 46.7602C64.2432 48.2534 66.7289 51.1276 66.7289 51.1276ZM66.7288 47.8001C67.4501 47.8001 68.0349 47.2228 68.0349 46.5107C68.0349 45.7985 67.4501 45.2213 66.7288 45.2213C66.0075 45.2213 65.4228 45.7985 65.4228 46.5107C65.4228 47.2228 66.0075 47.8001 66.7288 47.8001Z" fill="#FF8A00"/>
<path fill-rule="evenodd" clip-rule="evenodd" d="M108.71 97.9049C108.71 97.9049 111.196 95.0307 111.196 93.5376C111.196 92.0444 110.083 90.834 108.71 90.834C107.337 90.834 106.225 92.0444 106.225 93.5376C106.225 95.0307 108.71 97.9049 108.71 97.9049ZM108.71 94.5774C109.432 94.5774 110.016 94.0001 110.016 93.288C110.016 92.5759 109.432 91.9986 108.71 91.9986C107.989 91.9986 107.404 92.5759 107.404 93.288C107.404 94.0001 107.989 94.5774 108.71 94.5774Z" fill="#FF8A00"/>
<ellipse rx="40.3238" ry="4.07938" transform="matrix(1 0 0 -1 113.405 132.989)" fill="#0C1628"/>
</svg>
