<svg width="233" height="161" viewBox="0 0 233 161" fill="none" xmlns="http://www.w3.org/2000/svg">
<ellipse rx="40.3238" ry="4.07938" transform="matrix(1 0 0 -1 116.5 132.989)" fill="#0C1628"/>
<path d="M61.5381 102.528C56.6772 103.615 47.9127 112.953 43.3096 121.293C43.3096 125.645 176.433 127.004 175.052 119.662V115.582C175.052 107.695 173.395 99.2098 173.395 97.9048C173.395 96.2735 166.214 84.5788 165.938 82.947C165.662 81.3153 164.281 73.4284 162.071 70.7084C159.862 67.9884 152.681 44.6003 151.576 41.8807C150.692 39.705 146.973 39.8863 145.224 40.2489C142.646 42.1527 131.193 49.4412 128.1 50.3114C124.233 51.3993 114.014 67.4449 111.805 70.7084C109.595 73.9719 96.0619 78.5952 92.1953 79.4111C88.3286 80.227 80.3191 91.9212 78.9381 94.0969C77.5572 96.2726 67.6143 101.168 61.5381 102.528Z" fill="#4F5E77"/>
<path d="M147.158 72.6143C149.146 72.1791 150.196 70.2573 150.472 69.3507C157.929 67.9915 155.444 55.2083 159.31 64.1835C160.683 67.3701 161.125 69.2861 163.177 72.6143C167.872 80.2295 176.158 102.802 175.053 119.936C174.946 121.586 167.596 122.383 160.415 123.199C149.543 124.433 119.815 124.831 115.948 124.83C115.948 124.83 121.196 117.76 121.196 114.224C121.196 110.689 125.615 100.082 125.891 95.4588C126.167 90.8355 132.244 95.4588 131.967 88.9318C131.691 82.4048 144.672 73.1582 147.158 72.6143Z" fill="#30405B"/>
<path d="M70.6525 104.433C69.1059 104.868 62.643 104.977 60.4335 103.073C60.1571 102.529 59.9856 102.945 68.7194 100.081C70.3766 99.538 75.0716 96.8174 75.624 96.5454C76.1764 96.2735 84.4621 100.625 86.6716 100.897C88.8811 101.169 93.024 99.537 95.2335 99.537C97.443 99.537 97.7192 101.441 96.8906 101.169C96.2278 100.951 94.0367 101.078 93.024 101.169C91.643 101.804 88.7154 103.127 88.0525 103.345C87.224 103.616 81.424 103.073 78.9383 101.985C76.4525 100.897 72.5859 103.889 70.6525 104.433Z" fill="#30405B"/>
<path d="M97.9362 44.258C97.1573 44.1852 96.4659 44.7479 96.3919 45.5148C96.3179 46.2818 96.8894 46.9626 97.6683 47.0355L104.136 47.6404L44.2276 96.3964C43.6245 96.8873 43.5396 97.7666 44.0381 98.3604C44.5366 98.9543 45.4295 99.0378 46.0326 98.547L105.941 49.791L105.327 56.1594C105.253 56.9263 105.824 57.6072 106.603 57.68C107.382 57.7529 108.073 57.1902 108.147 56.4232L108.951 48.0908C109.099 46.5568 107.956 45.1952 106.398 45.0495L97.9362 44.258Z" fill="#FF8A00"/>
<path d="M25.5529 85.9749C25.5529 85.9749 19.0791 85.9749 13.8444 85.9749C8.60976 85.9749 4.36621 81.7963 4.36621 76.6418C4.36621 71.4873 8.60976 67.3088 13.8444 67.3088C19.0791 67.3088 25.5529 80.8204 25.5529 85.9749Z" fill="#6B7C99"/>
<path d="M44.1376 79.2038C44.1376 82.9434 41.059 85.9749 37.2613 85.9749C33.4636 85.9749 25.5529 85.9749 25.5529 85.9749C25.5529 82.2353 33.4636 72.4328 37.2613 72.4328C41.059 72.4328 44.1376 75.4643 44.1376 79.2038Z" fill="#6B7C99"/>
<path d="M37.4471 74.2628C37.4471 80.7312 32.1219 85.9749 25.5529 85.9749C18.9838 85.9749 13.6586 80.7312 13.6586 74.2628C13.6586 67.7944 18.9838 62.5508 25.5529 62.5508C32.1219 62.5508 37.4471 67.7944 37.4471 74.2628Z" fill="#6B7C99"/>
<path d="M155.926 115.788C155.926 115.788 166.581 115.788 175.196 115.788C183.812 115.788 190.52 112.372 190.52 103.888C190.52 93.5005 179.472 90.8343 175.18 93.01C166.564 93.01 155.926 107.305 155.926 115.788Z" fill="#6B7C99"/>
<path d="M125.339 108.24C126.167 114.767 130.406 115.788 136.656 115.788C142.906 115.788 155.926 115.788 155.926 115.788C155.926 109.634 142.906 99.9252 136.656 99.9252C131.415 98.1772 124.51 101.713 125.339 108.24Z" fill="#6B7C99"/>
<path d="M136.35 96.5124C136.35 107.158 145.115 115.788 155.926 115.788C166.738 115.788 175.502 107.158 175.502 96.5124C175.502 85.8665 166.738 77.2363 155.926 77.2363C145.115 77.2363 136.35 85.8665 136.35 96.5124Z" fill="#6B7C99"/>
<path d="M198.753 71.7316C198.753 71.7316 204.508 71.7316 209.161 71.7316C213.814 71.7316 217.586 68.0173 217.586 63.4355C217.586 58.8538 213.814 55.1395 209.161 55.1395C204.508 55.1395 198.753 67.1498 198.753 71.7316Z" fill="#586986"/>
<path d="M182.234 65.7129C182.234 69.0369 184.97 71.7316 188.346 71.7316C191.722 71.7316 198.753 71.7316 198.753 71.7316C198.753 68.4075 191.722 59.6942 188.346 59.6942C184.97 59.6942 182.234 62.3889 182.234 65.7129Z" fill="#586986"/>
<path d="M188.181 61.3209C188.181 67.0705 192.914 71.7316 198.753 71.7316C204.592 71.7316 209.326 67.0705 209.326 61.3209C209.326 55.5712 204.592 50.9102 198.753 50.9102C192.914 50.9102 188.181 55.5712 188.181 61.3209Z" fill="#586986"/>
<rect x="146.328" y="11.9668" width="1.65714" height="28.2838" fill="#30405B"/>
<path d="M146.328 11.9668H162.347L158.48 17.6779L162.071 23.3891H146.328V11.9668Z" fill="#FF8A00"/>
<path d="M105.176 77.78L94.4043 78.8678C97.1662 78.0519 107.661 73.7006 110.7 71.7969C111.068 72.2501 110.7 73.8638 110.7 74.5165C110.7 75.3323 114.29 75.6043 115.671 75.6043C116.776 75.6043 118.893 74.3352 119.814 73.7006C120.458 74.1539 122.355 74.7884 124.785 73.7006C127.216 72.6128 132.795 72.3408 135.28 72.3408C133.9 72.7034 130.64 73.483 128.652 73.7006C126.663 73.9182 123.22 77.5987 121.747 79.4117L118.985 77.2361C118.157 77.2361 116.444 77.508 116.223 78.5959C115.947 79.9557 109.319 79.4117 108.214 79.4117C107.33 79.4117 105.82 80.3183 105.176 80.7715V77.78Z" fill="#30405B"/>
</svg>
