<svg width="233" height="161" viewBox="0 0 233 161" fill="none" xmlns="http://www.w3.org/2000/svg">
<ellipse rx="40.3238" ry="4.07938" transform="matrix(1 0 0 -1 116.834 132.989)" fill="#0C1628"/>
<rect x="4.7002" y="30.5742" width="90.0381" height="46.6625" rx="2" fill="#30405B"/>
<path d="M15.5317 39.6541H14.1777V38.9142H17.935V39.6541H16.5878V43.2405H15.5317V39.6541Z" fill="#B8B8B8"/>
<path d="M19.4292 43.3071C19.1223 43.3071 18.8922 43.2805 18.7387 43.2271C18.5898 43.1694 18.4837 43.0694 18.4205 42.9272C18.3619 42.7805 18.3325 42.5628 18.3325 42.2739C18.3325 42.0161 18.3641 41.8139 18.4273 41.6673C18.495 41.5206 18.6011 41.4162 18.7455 41.354C18.8944 41.2873 19.0975 41.254 19.3548 41.254H20.465V41.034C20.465 40.8962 20.4447 40.794 20.4041 40.7274C20.368 40.6607 20.298 40.614 20.1942 40.5874C20.0949 40.5607 19.9437 40.5474 19.7406 40.5474C19.4608 40.5474 19.0772 40.574 18.5898 40.6274V40.0141C18.9463 39.9696 19.3638 39.9474 19.8422 39.9474C20.2619 39.9474 20.5846 39.9785 20.8103 40.0408C21.0404 40.103 21.2052 40.2096 21.3045 40.3607C21.4038 40.5118 21.4534 40.7318 21.4534 41.0207V43.2405H20.4853V42.9472C20.4086 43.076 20.3048 43.1671 20.1739 43.2205C20.043 43.2782 19.7948 43.3071 19.4292 43.3071ZM19.8151 42.7005C20.0137 42.7005 20.1559 42.6939 20.2416 42.6805C20.3048 42.6716 20.3477 42.6583 20.3702 42.6405C20.3973 42.6227 20.4199 42.5939 20.4379 42.5539C20.456 42.5228 20.465 42.4761 20.465 42.4139V41.7873H19.788C19.6346 41.7873 19.5263 41.7984 19.4631 41.8206C19.3999 41.8384 19.357 41.8784 19.3345 41.9406C19.3119 41.9984 19.3006 42.1028 19.3006 42.2539C19.3006 42.4005 19.3119 42.5028 19.3345 42.5605C19.357 42.6183 19.3999 42.6561 19.4631 42.6739C19.5308 42.6916 19.6481 42.7005 19.8151 42.7005Z" fill="#B8B8B8"/>
<path d="M23.5483 43.3071C23.1963 43.3071 22.7653 43.2738 22.2553 43.2071V42.5605C22.8826 42.6539 23.3182 42.7005 23.5619 42.7005C23.7695 42.7005 23.9229 42.6805 24.0222 42.6405C24.1215 42.6005 24.1711 42.5272 24.1711 42.4205V42.2206C24.1711 42.1095 24.1396 42.0317 24.0764 41.9872C24.0132 41.9384 23.8891 41.9139 23.704 41.9139H23.2775C22.93 41.9139 22.6615 41.8473 22.4719 41.7139C22.2824 41.5762 22.1876 41.3762 22.1876 41.114V40.7207C22.1876 40.4407 22.323 40.243 22.5938 40.1274C22.8646 40.0074 23.273 39.9474 23.8191 39.9474C24.0358 39.9474 24.4239 39.9674 24.9835 40.0074V40.6274C24.2795 40.574 23.8823 40.5474 23.792 40.5474C23.5258 40.5474 23.352 40.5652 23.2708 40.6007C23.1986 40.6407 23.1625 40.714 23.1625 40.8207V40.994C23.1625 41.0518 23.1918 41.1029 23.2505 41.1473C23.3091 41.1873 23.3949 41.2073 23.5077 41.2073H23.941C24.7443 41.2073 25.146 41.4651 25.146 41.9806V42.3872C25.146 42.5428 25.1167 42.6783 25.058 42.7938C24.9993 42.9094 24.9226 43.0005 24.8278 43.0672C24.7376 43.1294 24.6202 43.1783 24.4758 43.2138C24.3359 43.2494 24.1892 43.2738 24.0358 43.2871C23.8958 43.3005 23.7334 43.3071 23.5483 43.3071Z" fill="#B8B8B8"/>
<path d="M25.8798 38.5742H26.8682V43.2405H25.8798V38.5742ZM26.9088 41.4273L27.9852 40.0141H29.1157L27.9784 41.4206L29.2105 43.2405H28.0935L26.9088 41.4273Z" fill="#B8B8B8"/>
<path d="M32.4364 39.9341L31.2381 40.5874V39.7674L32.6259 38.9142H33.4248V43.2405H32.4364V39.9341Z" fill="#B8B8B8"/>
<rect x="14.1777" y="51.3047" width="71.7597" height="3.33303" rx="1.66652" fill="#1E2635"/>
<rect x="14.1777" y="58.6387" width="71.7597" height="3.33304" rx="1.66652" fill="#1E2635"/>
<rect x="14.1777" y="65.9707" width="55.5122" height="3.33302" rx="1.66651" fill="#1E2635"/>
<rect x="51.6533" y="51.1289" width="104.731" height="54.2774" rx="2" fill="#4F5E77"/>
<path d="M64.1996 61.0731H62.7012V60.2227H66.8594V61.0731H65.3684V65.1946H64.1996V61.0731Z" fill="white"/>
<path d="M68.5131 65.2712C68.1735 65.2712 67.9187 65.2406 67.7489 65.1793C67.5841 65.1129 67.4667 64.998 67.3968 64.8346C67.3318 64.666 67.2994 64.4158 67.2994 64.0838C67.2994 63.7876 67.3343 63.5552 67.4043 63.3867C67.4792 63.2181 67.5966 63.0981 67.7564 63.0266C67.9212 62.95 68.146 62.9117 68.4307 62.9117H69.6594V62.6589C69.6594 62.5006 69.637 62.3831 69.592 62.3065C69.552 62.2299 69.4746 62.1762 69.3597 62.1456C69.2499 62.115 69.0825 62.0996 68.8578 62.0996C68.5481 62.0996 68.1235 62.1303 67.5841 62.1916V61.4868C67.9787 61.4357 68.4407 61.4102 68.9701 61.4102C69.4347 61.4102 69.7918 61.4459 70.0415 61.5174C70.2963 61.5889 70.4786 61.7115 70.5885 61.8851C70.6984 62.0588 70.7533 62.3116 70.7533 62.6436V65.1946H69.6819V64.8575C69.597 65.0056 69.4821 65.1103 69.3373 65.1716C69.1924 65.238 68.9177 65.2712 68.5131 65.2712ZM68.9402 64.5741C69.1599 64.5741 69.3173 64.5664 69.4122 64.5511C69.4821 64.5409 69.5296 64.5256 69.5545 64.5051C69.5845 64.4847 69.6095 64.4515 69.6295 64.4056C69.6494 64.3698 69.6594 64.3162 69.6594 64.2447V63.5246H68.9102C68.7404 63.5246 68.6205 63.5373 68.5506 63.5629C68.4806 63.5833 68.4332 63.6293 68.4082 63.7008C68.3832 63.7671 68.3708 63.8872 68.3708 64.0608C68.3708 64.2294 68.3832 64.3468 68.4082 64.4132C68.4332 64.4796 68.4806 64.523 68.5506 64.5434C68.6255 64.5639 68.7554 64.5741 68.9402 64.5741Z" fill="white"/>
<path d="M73.0718 65.2712C72.6822 65.2712 72.2052 65.2329 71.6408 65.1563V64.4132C72.3351 64.5205 72.8171 64.5741 73.0868 64.5741C73.3165 64.5741 73.4864 64.5511 73.5963 64.5051C73.7061 64.4592 73.7611 64.3749 73.7611 64.2523V64.0225C73.7611 63.8948 73.7261 63.8055 73.6562 63.7544C73.5863 63.6982 73.4489 63.6701 73.2441 63.6701H72.7721C72.3875 63.6701 72.0903 63.5935 71.8805 63.4403C71.6707 63.282 71.5659 63.0521 71.5659 62.7508V62.2988C71.5659 61.9771 71.7157 61.7498 72.0154 61.617C72.3151 61.4791 72.7671 61.4102 73.3715 61.4102C73.6112 61.4102 74.0408 61.4331 74.6602 61.4791V62.1916C73.881 62.1303 73.4414 62.0996 73.3415 62.0996C73.0468 62.0996 72.8545 62.1201 72.7646 62.1609C72.6847 62.2069 72.6447 62.2912 72.6447 62.4137V62.6129C72.6447 62.6793 72.6772 62.738 72.7421 62.7891C72.8071 62.8351 72.902 62.8581 73.0268 62.8581H73.5064C74.3954 62.8581 74.84 63.1543 74.84 63.7467V64.214C74.84 64.3928 74.8075 64.5486 74.7426 64.6813C74.6776 64.8141 74.5927 64.9188 74.4878 64.9954C74.3879 65.0669 74.2581 65.1231 74.0982 65.164C73.9434 65.2048 73.7811 65.2329 73.6112 65.2482C73.4564 65.2636 73.2766 65.2712 73.0718 65.2712Z" fill="white"/>
<path d="M75.6521 59.832H76.7459V65.1946H75.6521V59.832ZM76.7909 63.1109L77.9822 61.4868H79.2334L77.9747 63.1032L79.3383 65.1946H78.102L76.7909 63.1109Z" fill="white"/>
<path d="M81.3799 64.0608C81.3799 63.785 81.4549 63.545 81.6047 63.3407C81.7546 63.1364 81.9494 62.9806 82.1891 62.8734C82.3789 62.7866 82.6012 62.6997 82.8559 62.6129C83.1107 62.5261 83.308 62.4342 83.4478 62.3371C83.5877 62.2401 83.6576 62.1252 83.6576 61.9924V61.3565C83.6576 61.1982 83.5952 61.0935 83.4703 61.0424C83.3354 60.9863 83.1256 60.9582 82.8409 60.9582C82.4963 60.9582 82.0418 61.022 81.4773 61.1497V60.307C81.9768 60.1998 82.4988 60.1461 83.0432 60.1461C83.6326 60.1461 84.0697 60.2381 84.3544 60.4219C84.6441 60.6058 84.7889 60.9122 84.7889 61.3412V62.0307C84.7889 62.2912 84.7115 62.5184 84.5567 62.7125C84.4068 62.9015 84.212 63.0445 83.9723 63.1415C83.7475 63.2385 83.5177 63.3254 83.283 63.402C83.0282 63.4939 82.826 63.5961 82.6761 63.7084C82.5313 63.8208 82.4588 63.9536 82.4588 64.1068V64.3596H84.7964V65.1946H81.3799V64.0608Z" fill="white"/>
<rect x="62.7012" y="75.2441" width="83.4702" height="3.87695" rx="1.93848" fill="#1E2635"/>
<rect x="62.7012" y="83.7734" width="83.4702" height="3.87697" rx="1.93848" fill="#1E2635"/>
<rect x="62.7012" y="92.3027" width="64.5713" height="3.87697" rx="1.93848" fill="#1E2635"/>
<rect x="111.311" y="14.6855" width="110.808" height="57.4264" rx="2" fill="#6B7C99"/>
<path d="M124.565 25.8417H122.91V24.9063H127.503V25.8417H125.856V30.3754H124.565V25.8417Z" fill="white"/>
<path d="M129.329 30.4597C128.954 30.4597 128.673 30.426 128.485 30.3585C128.303 30.2855 128.174 30.1591 128.096 29.9793C128.025 29.7939 127.989 29.5187 127.989 29.1535C127.989 28.8277 128.027 28.572 128.105 28.3867C128.187 28.2013 128.317 28.0692 128.494 27.9906C128.676 27.9063 128.924 27.8642 129.238 27.8642H130.596V27.5861C130.596 27.4119 130.571 27.2827 130.521 27.1985C130.477 27.1142 130.391 27.0552 130.265 27.0215C130.143 26.9878 129.958 26.9709 129.71 26.9709C129.368 26.9709 128.899 27.0046 128.303 27.0721V26.2968C128.739 26.2406 129.249 26.2125 129.834 26.2125C130.347 26.2125 130.742 26.2518 131.018 26.3305C131.299 26.4091 131.5 26.544 131.622 26.735C131.743 26.926 131.804 27.2041 131.804 27.5692V30.3754H130.62V30.0046C130.527 30.1675 130.4 30.2827 130.24 30.3501C130.08 30.4232 129.776 30.4597 129.329 30.4597ZM129.801 29.6928C130.044 29.6928 130.218 29.6844 130.322 29.6675C130.4 29.6563 130.452 29.6395 130.48 29.617C130.513 29.5945 130.54 29.558 130.562 29.5074C130.584 29.4681 130.596 29.4091 130.596 29.3305V28.5383H129.768C129.58 28.5383 129.448 28.5524 129.371 28.5805C129.294 28.6029 129.241 28.6535 129.214 28.7322C129.186 28.8052 129.172 28.9372 129.172 29.1282C129.172 29.3136 129.186 29.4428 129.214 29.5159C129.241 29.5889 129.294 29.6366 129.371 29.6591C129.454 29.6816 129.597 29.6928 129.801 29.6928Z" fill="white"/>
<path d="M134.364 30.4597C133.934 30.4597 133.407 30.4175 132.784 30.3333V29.5159C133.551 29.6338 134.083 29.6928 134.381 29.6928C134.635 29.6928 134.822 29.6675 134.944 29.617C135.065 29.5664 135.126 29.4737 135.126 29.3389V29.0861C135.126 28.9456 135.087 28.8473 135.01 28.7911C134.933 28.7293 134.781 28.6984 134.555 28.6984H134.033C133.609 28.6984 133.28 28.6142 133.049 28.4456C132.817 28.2715 132.701 28.0187 132.701 27.6872V27.19C132.701 26.8361 132.867 26.5861 133.198 26.44C133.529 26.2883 134.028 26.2125 134.695 26.2125C134.96 26.2125 135.435 26.2378 136.119 26.2883V27.0721C135.258 27.0046 134.773 26.9709 134.662 26.9709C134.337 26.9709 134.124 26.9934 134.025 27.0383C133.937 27.0889 133.893 27.1816 133.893 27.3164V27.5355C133.893 27.6086 133.929 27.6732 134 27.7294C134.072 27.7799 134.177 27.8052 134.315 27.8052H134.844C135.826 27.8052 136.317 28.131 136.317 28.7827V29.2968C136.317 29.4934 136.282 29.6647 136.21 29.8108C136.138 29.9569 136.044 30.072 135.928 30.1563C135.818 30.235 135.675 30.2968 135.498 30.3417C135.327 30.3866 135.148 30.4175 134.96 30.4344C134.789 30.4512 134.591 30.4597 134.364 30.4597Z" fill="white"/>
<path d="M137.214 24.4766H138.423V30.3754H137.214V24.4766ZM138.472 28.0833L139.788 26.2968H141.17L139.78 28.0749L141.286 30.3754H139.92L138.472 28.0833Z" fill="white"/>
<path d="M145.254 30.4597C144.79 30.4597 144.189 30.4175 143.45 30.3333V29.3557L143.715 29.4063C143.819 29.4288 143.877 29.4428 143.888 29.4484L144.17 29.499C144.236 29.5102 144.377 29.5271 144.592 29.5496C144.757 29.5664 144.925 29.5748 145.096 29.5748C145.416 29.5748 145.637 29.5355 145.758 29.4569C145.885 29.3782 145.949 29.2293 145.949 29.0102V28.3782C145.949 28.1142 145.67 27.9822 145.113 27.9822H144.137V27.1395H145.113C145.543 27.1395 145.758 26.9794 145.758 26.6591V26.1282C145.758 26.0103 145.736 25.9204 145.692 25.8586C145.648 25.7912 145.568 25.7434 145.452 25.7153C145.342 25.6872 145.176 25.6732 144.956 25.6732C144.641 25.6732 144.156 25.7069 143.499 25.7743V24.8979C144.25 24.8473 144.779 24.8221 145.088 24.8221C145.761 24.8221 146.247 24.9007 146.545 25.058C146.848 25.2153 147 25.4934 147 25.8923V26.794C147 26.9569 146.95 27.0973 146.851 27.2153C146.757 27.3277 146.636 27.4035 146.487 27.4428C146.972 27.617 147.215 27.8895 147.215 28.2602V29.1535C147.215 29.6198 147.058 29.9541 146.743 30.1563C146.429 30.3585 145.932 30.4597 145.254 30.4597Z" fill="white"/>
<rect x="122.91" y="40.1992" width="88.3129" height="4.10189" rx="2.05094" fill="#1E2635"/>
<rect x="122.91" y="49.2227" width="88.3128" height="4.10188" rx="2.05094" fill="#1E2635"/>
<rect x="122.91" y="58.2461" width="68.3175" height="4.10189" rx="2.05095" fill="#1E2635"/>
<rect x="74.3008" y="99.5371" width="85.6191" height="22.8446" rx="2" fill="#FF8A00"/>
<path d="M91.8655 114.104C91.3153 114.104 90.6591 114.051 89.8968 113.947V113.154C90.6657 113.317 91.3419 113.399 91.9252 113.399C92.4157 113.399 92.7736 113.346 92.999 113.242C93.2244 113.131 93.3371 112.929 93.3371 112.635V111.813C93.3371 111.539 93.2575 111.346 93.0984 111.235C92.9393 111.124 92.6609 111.069 92.2632 111.069H91.5076C90.8779 111.069 90.4304 110.945 90.1653 110.697C89.9001 110.448 89.7676 110.063 89.7676 109.541V109.032C89.7676 108.686 89.8438 108.406 89.9963 108.19C90.1553 107.975 90.4172 107.815 90.7817 107.71C91.1529 107.606 91.66 107.554 92.303 107.554C92.7339 107.554 93.2873 107.59 93.9635 107.661V108.376C93.2078 108.265 92.6311 108.21 92.2334 108.21C91.6169 108.21 91.2093 108.268 91.0104 108.386C90.8049 108.51 90.7022 108.716 90.7022 109.003V109.727C90.7022 109.949 90.7817 110.112 90.9408 110.217C91.1065 110.315 91.3883 110.364 91.786 110.364H92.5615C93.0056 110.364 93.3503 110.416 93.5956 110.52C93.8475 110.625 94.0231 110.785 94.1225 111C94.2286 111.209 94.2816 111.493 94.2816 111.852V112.312C94.2816 112.762 94.1955 113.118 94.0231 113.379C93.8574 113.64 93.5989 113.826 93.2476 113.937C92.8963 114.048 92.4356 114.104 91.8655 114.104Z" fill="white"/>
<path d="M97.2778 114.104C96.6613 114.104 96.2271 113.996 95.9753 113.781C95.73 113.559 95.6074 113.213 95.6074 112.743V109.267H96.5022V112.694C96.5022 112.818 96.5122 112.919 96.5321 112.997C96.5586 113.069 96.6017 113.144 96.6613 113.222C96.7806 113.392 97.0723 113.477 97.5363 113.477C98.0268 113.477 98.3715 113.431 98.5703 113.34C98.7626 113.249 98.8587 113.082 98.8587 112.841V109.267H99.7535V114.006H98.8587V113.428C98.7725 113.878 98.2455 114.104 97.2778 114.104Z" fill="white"/>
<path d="M103.455 114.104C103.097 114.104 102.808 114.084 102.59 114.045C102.378 114.012 102.165 113.947 101.953 113.849C101.522 113.647 101.307 113.183 101.307 112.459V107.152H102.202V108.572V109.13C102.195 109.3 102.192 109.489 102.192 109.698C102.225 109.548 102.364 109.42 102.61 109.316C102.861 109.218 103.226 109.169 103.703 109.169C105.029 109.169 105.692 109.616 105.692 110.511V112.459C105.692 112.739 105.649 112.984 105.563 113.193C105.483 113.402 105.377 113.565 105.244 113.683C105.125 113.794 104.959 113.882 104.747 113.947C104.542 114.012 104.336 114.055 104.131 114.074C103.945 114.094 103.72 114.104 103.455 114.104ZM103.475 113.526C103.819 113.526 104.081 113.503 104.26 113.457C104.446 113.405 104.578 113.314 104.658 113.183C104.737 113.053 104.777 112.854 104.777 112.586V110.726C104.777 110.458 104.737 110.259 104.658 110.129C104.578 109.992 104.446 109.903 104.26 109.864C104.081 109.819 103.816 109.796 103.465 109.796C103.14 109.796 102.888 109.822 102.709 109.874C102.53 109.926 102.401 110.021 102.321 110.158C102.242 110.289 102.202 110.478 102.202 110.726V112.586C102.202 112.854 102.238 113.053 102.311 113.183C102.391 113.314 102.52 113.405 102.699 113.457C102.878 113.503 103.137 113.526 103.475 113.526Z" fill="white"/>
<path d="M107.065 109.267H107.96V109.845C108.053 109.394 108.593 109.169 109.581 109.169C110.383 109.169 110.883 109.385 111.082 109.815C111.142 109.607 111.321 109.447 111.619 109.336C111.924 109.225 112.295 109.169 112.732 109.169C113.329 109.169 113.75 109.28 113.995 109.502C114.24 109.717 114.363 110.06 114.363 110.53V114.006H113.468V110.589C113.468 110.465 113.458 110.364 113.438 110.285C113.418 110.207 113.379 110.129 113.319 110.05C113.186 109.887 112.891 109.806 112.434 109.806C112.083 109.806 111.821 109.828 111.649 109.874C111.476 109.92 111.357 109.998 111.291 110.109C111.231 110.22 111.201 110.38 111.201 110.589V114.006H110.306V110.589C110.306 110.465 110.296 110.364 110.277 110.285C110.257 110.207 110.217 110.129 110.157 110.05C110.025 109.887 109.733 109.806 109.282 109.806C108.918 109.806 108.643 109.828 108.457 109.874C108.271 109.92 108.142 109.998 108.069 110.109C107.996 110.214 107.96 110.373 107.96 110.589V114.006H107.065V109.267Z" fill="white"/>
<path d="M115.911 107.554H116.805V108.474H115.911V107.554ZM115.911 109.267H116.805V114.006H115.911V109.267Z" fill="white"/>
<path d="M120.376 114.104C119.965 114.104 119.643 114.061 119.411 113.976C119.179 113.885 119.01 113.735 118.904 113.526C118.805 113.311 118.755 113.01 118.755 112.625V109.845H117.681V109.267H118.755V107.799H119.66V109.267H121.38V109.845H119.66V112.674C119.66 112.909 119.687 113.085 119.74 113.203C119.799 113.32 119.899 113.405 120.038 113.457C120.184 113.503 120.392 113.526 120.664 113.526C120.75 113.526 120.989 113.5 121.38 113.448V114.025C121.042 114.078 120.707 114.104 120.376 114.104Z" fill="white"/>
<path d="M126.3 108.317H124.113V107.652H129.452V108.317H127.274V114.006H126.3V108.317Z" fill="white"/>
<path d="M131.947 114.104C131.49 114.104 131.135 114.061 130.883 113.976C130.638 113.892 130.459 113.741 130.346 113.526C130.24 113.311 130.187 113.001 130.187 112.596C130.187 112.237 130.237 111.96 130.336 111.764C130.442 111.561 130.618 111.418 130.863 111.333C131.115 111.248 131.47 111.206 131.927 111.206H133.369V110.452C133.369 110.276 133.332 110.142 133.26 110.05C133.193 109.952 133.077 109.884 132.912 109.845C132.752 109.806 132.517 109.786 132.206 109.786C131.708 109.786 131.158 109.825 130.555 109.903V109.257C131.211 109.199 131.805 109.169 132.335 109.169C132.892 109.169 133.303 109.212 133.568 109.296C133.833 109.375 134.015 109.515 134.115 109.717C134.214 109.92 134.264 110.233 134.264 110.657V114.006H133.399V113.555C133.326 113.921 132.842 114.104 131.947 114.104ZM132.096 113.526C132.421 113.526 132.696 113.503 132.922 113.457C133.22 113.399 133.369 113.262 133.369 113.046V111.754H131.987C131.702 111.754 131.496 111.777 131.37 111.822C131.244 111.862 131.162 111.94 131.122 112.057C131.082 112.175 131.062 112.364 131.062 112.625C131.062 112.86 131.085 113.043 131.132 113.174C131.178 113.298 131.261 113.389 131.38 113.448C131.5 113.5 131.679 113.526 131.917 113.526H132.096Z" fill="white"/>
<path d="M137.287 114.104C136.777 114.104 136.227 114.064 135.637 113.986V113.311C136.412 113.435 136.969 113.497 137.307 113.497C137.731 113.497 138.036 113.457 138.222 113.379C138.408 113.294 138.5 113.141 138.5 112.919V112.439C138.5 112.237 138.431 112.093 138.292 112.008C138.152 111.924 137.927 111.881 137.615 111.881H137.069C136.571 111.881 136.19 111.78 135.925 111.578C135.667 111.375 135.537 111.091 135.537 110.726V110.285C135.537 109.541 136.253 109.169 137.685 109.169C137.791 109.169 138.278 109.195 139.147 109.248V109.884C138.557 109.793 138.056 109.747 137.645 109.747C137.175 109.747 136.853 109.793 136.681 109.884C136.508 109.975 136.422 110.129 136.422 110.344V110.745C136.422 111.065 136.717 111.225 137.307 111.225H137.864C138.878 111.225 139.385 111.597 139.385 112.341V112.753C139.385 113.242 139.213 113.591 138.868 113.8C138.524 114.002 137.997 114.104 137.287 114.104Z" fill="white"/>
<path d="M140.622 107.152H141.517V114.006H140.622V107.152ZM141.626 111.411L143.655 109.267H144.748L142.66 111.411L144.937 114.006H143.824L141.626 111.411Z" fill="white"/>
</svg>
